name C:\Users\antoi\Documents\MyRepositories\upper-imu-dc\Results\main_tracking\Case_76\FLX01_angularVelocities_groundFrame.mot
datacolumns 4
datarows 105
range 0.51000000 1.55000000
endheader 
time	radius_imu_x	radius_imu_y	radius_imu_z	
          0.51000000	         -0.20592001	          0.27971915	          0.28522458	
          0.52000000	         -0.20306221	          0.28204394	          0.28952895	
          0.53000000	         -0.20016910	          0.28612589	          0.29452330	
          0.54000000	         -0.19814502	          0.29219233	          0.30010168	
          0.55000000	         -0.19735592	          0.30039163	          0.30636540	
          0.56000000	         -0.19798254	          0.31070476	          0.31344820	
          0.57000000	         -0.20011914	          0.32289071	          0.32150525	
          0.58000000	         -0.20381821	          0.33649609	          0.33070844	
          0.59000000	         -0.20909354	          0.35088934	          0.34124278	
          0.60000000	         -0.21591845	          0.36532013	          0.35330277	
          0.61000000	         -0.22422605	          0.37899449	          0.36708378	
          0.62000000	         -0.23391541	          0.39116562	          0.38276724	
          0.63000000	         -0.24486110	          0.40123068	          0.40050335	
          0.64000000	         -0.25692216	          0.40880761	          0.42039768	
          0.65000000	         -0.26995016	          0.41376685	          0.44250599	
          0.66000000	         -0.28379373	          0.41621994	          0.46683534	
          0.67000000	         -0.29829932	          0.41648663	          0.49334706	
          0.68000000	         -0.31331159	          0.41506047	          0.52195868	
          0.69000000	         -0.32867577	          0.41258485	          0.55254292	
          0.70000000	         -0.34424214	          0.40983600	          0.58492494	
          0.71000000	         -0.35987040	          0.40769983	          0.61888127	
          0.72000000	         -0.37543098	          0.40713033	          0.65414331	
          0.73000000	         -0.39080235	          0.40908725	          0.69040631	
          0.74000000	         -0.40587129	          0.41446052	          0.72734467	
          0.75000000	         -0.42053128	          0.42399708	          0.76463232	
          0.76000000	         -0.43465651	          0.43823747	          0.80195303	
          0.77000000	         -0.44812787	          0.45746540	          0.83902953	
          0.78000000	         -0.46082674	          0.48170508	          0.87563384	
          0.79000000	         -0.47259061	          0.51064674	          0.91159839	
          0.80000000	         -0.48329268	          0.54384935	          0.94673375	
          0.81000000	         -0.49294946	          0.58012063	          0.98134191	
          0.82000000	         -0.50159936	          0.61675573	          1.01570766	
          0.83000000	         -0.50966186	          0.65049319	          1.05042551	
          0.84000000	         -0.51680431	          0.68011762	          1.08602427	
          0.85000000	         -0.52268431	          0.70494130	          1.12239225	
          0.86000000	         -0.52684227	          0.72396937	          1.15966918	
          0.87000000	         -0.52885210	          0.73651458	          1.19799111	
          0.88000000	         -0.52832416	          0.74206808	          1.23752678	
          0.89000000	         -0.52472690	          0.74037379	          1.27832681	
          0.90000000	         -0.51759683	          0.73137033	          1.32037061	
          0.91000000	         -0.50663704	          0.71523549	          1.36358265	
          0.92000000	         -0.49156296	          0.69245520	          1.40776211	
          0.93000000	         -0.47225982	          0.66380203	          1.45261271	
          0.94000000	         -0.44881684	          0.63032496	          1.49773399	
          0.95000000	         -0.42155366	          0.59335339	          1.54262800	
          0.96000000	         -0.39107010	          0.55445189	          1.58671470	
          0.97000000	         -0.35820516	          0.51536870	          1.62932448	
          0.98000000	         -0.32402227	          0.47795865	          1.66973040	
          0.99000000	         -0.28978970	          0.44406633	          1.70720141	
          1.00000000	         -0.25690393	          0.41540061	          1.74104416	
          1.01000000	         -0.22678592	          0.39341356	          1.77063478	
          1.02000000	         -0.20080361	          0.37919303	          1.79546496	
          1.03000000	         -0.18019863	          0.37339905	          1.81517020	
          1.04000000	         -0.16601119	          0.37624988	          1.82952971	
          1.05000000	         -0.15904168	          0.38754276	          1.83846805	
          1.06000000	         -0.15983120	          0.40669597	          1.84205507	
          1.07000000	         -0.16864664	          0.43281081	          1.84049511	
          1.08000000	         -0.18547661	          0.46474943	          1.83410464	
          1.09000000	         -0.21005591	          0.50121880	          1.82328988	
          1.10000000	         -0.24191142	          0.54085354	          1.80852437	
          1.11000000	         -0.28040256	          0.58229631	          1.79031329	
          1.12000000	         -0.32476326	          0.62425932	          1.76916365	
          1.13000000	         -0.37414797	          0.66556226	          1.74557076	
          1.14000000	         -0.42766405	          0.70515485	          1.72000857	
          1.15000000	         -0.48439283	          0.74212902	          1.69292381	
          1.16000000	         -0.54340531	          0.77572452	          1.66473431	
          1.17000000	         -0.60377798	          0.80533097	          1.63582822	
          1.18000000	         -0.66461198	          0.83048931	          1.60656130	
          1.19000000	         -0.72505594	          0.85089251	          1.57725191	
          1.20000000	         -0.78433000	          0.86638327	          1.54817473	
          1.21000000	         -0.84174867	          0.87694591	          1.51955548	
          1.22000000	         -0.89673872	          0.88269098	          1.49156764	
          1.23000000	         -0.94884776	          0.88383181	          1.46433141	
          1.24000000	         -0.99774039	          0.88065548	          1.43791575	
          1.25000000	         -1.04318193	          0.87349267	          1.41234518	
          1.26000000	         -1.08501319	          0.86268841	          1.38761070	
          1.27000000	         -1.12312158	          0.84857897	          1.36368251	
          1.28000000	         -1.15741489	          0.83148179	          1.34051850	
          1.29000000	         -1.18780547	          0.81169431	          1.31807266	
          1.30000000	         -1.21420955	          0.78952079	          1.29629531	
          1.31000000	         -1.23654977	          0.76523312	          1.27513366	
          1.32000000	         -1.25478734	          0.73911541	          1.25455133	
          1.33000000	         -1.26891589	          0.71146264	          1.23451653	
          1.34000000	         -1.27897267	          0.68255104	          1.21498495	
          1.35000000	         -1.28505809	          0.65266808	          1.19592640	
          1.36000000	         -1.28734314	          0.62209638	          1.17732272	
          1.37000000	         -1.28607236	          0.59110623	          1.15916168	
          1.38000000	         -1.28157168	          0.55996037	          1.14143563	
          1.39000000	         -1.27425655	          0.52891520	          1.12413893	
          1.40000000	         -1.26463572	          0.49822165	          1.10726565	
          1.41000000	         -1.25330346	          0.46812321	          1.09080774	
          1.42000000	         -1.24091311	          0.43884596	          1.07475202	
          1.43000000	         -1.22813328	          0.41059029	          1.05908113	
          1.44000000	         -1.21559300	          0.38352504	          1.04378443	
          1.45000000	         -1.20381315	          0.35775362	          1.02886606	
          1.46000000	         -1.19315237	          0.33332958	          1.01434873	
          1.47000000	         -1.18376095	          0.31025584	          1.00027862	
          1.48000000	         -1.17557046	          0.28848146	          0.98673175	
          1.49000000	         -1.16830806	          0.26793212	          0.97382028	
          1.50000000	         -1.16153193	          0.24851995	          0.96168244	
          1.51000000	         -1.15468656	          0.23015876	          0.95047295	
          1.52000000	         -1.14716977	          0.21277989	          0.94035242	
          1.53000000	         -1.13840307	          0.19634120	          0.93147306	
          1.54000000	         -1.12790190	          0.18083017	          0.92396238	
          1.55000000	         -1.11533986	          0.16626312	          0.91790807	
